<?xml version="1.0" standalone="no"?>
<!DOCTYPE svg PUBLIC "-//W3C//DTD SVG 20010904//EN"
 "http://www.w3.org/TR/2001/REC-SVG-20010904/DTD/svg10.dtd">
<svg version="1.0" xmlns="http://www.w3.org/2000/svg"
 width="1012.000000pt" height="1012.000000pt" viewBox="0 0 1012.000000 1012.000000"
 preserveAspectRatio="xMidYMid meet">
<metadata>
Created by potrace 1.14, written by Peter Selinger 2001-2017
</metadata>
<g transform="translate(0.000000,1012.000000) scale(0.100000,-0.100000)"
fill="#000000" stroke="none">
<path d="M4099 9825 c-2 -2 -49 -6 -104 -10 -55 -4 -115 -8 -133 -11 -18 -2
-56 -6 -85 -9 -73 -7 -416 -64 -452 -75 -16 -5 -41 -11 -55 -14 -47 -8 -235
-57 -320 -84 -47 -14 -87 -27 -90 -27 -3 -1 -12 -4 -20 -8 -8 -3 -40 -13 -70
-23 -59 -18 -243 -90 -325 -127 -165 -73 -549 -278 -575 -307 -3 -3 -39 -27
-80 -54 -69 -45 -268 -191 -280 -205 -3 -4 -30 -26 -60 -51 -131 -108 -331
-307 -446 -446 -21 -26 -45 -53 -51 -60 -7 -7 -13 -17 -13 -23 0 -6 -4 -11 -8
-11 -17 0 -261 -352 -262 -377 0 -6 -4 -13 -8 -15 -19 -8 -165 -285 -236 -448
-116 -267 -240 -638 -281 -843 -2 -10 -6 -26 -9 -35 -3 -9 -7 -28 -10 -42 -3
-14 -14 -72 -26 -130 -29 -146 -62 -371 -56 -386 2 -6 2 -15 -2 -18 -7 -8 -8
-11 -16 -106 -3 -41 -9 -113 -13 -160 -5 -47 -8 -200 -8 -340 0 -252 5 -346
30 -585 2 -22 7 -67 10 -100 4 -33 8 -67 10 -75 3 -8 9 -44 14 -80 25 -169 68
-381 112 -545 11 -44 22 -87 24 -95 19 -84 122 -388 187 -550 68 -171 169
-390 180 -390 5 0 6 -5 3 -10 -4 -6 -2 -16 3 -23 5 -7 33 -56 61 -110 29 -54
60 -111 69 -127 9 -15 34 -58 55 -94 91 -157 299 -452 438 -619 162 -193 374
-410 540 -549 24 -21 58 -49 74 -63 103 -90 460 -345 483 -345 6 0 12 -4 14
-8 2 -5 41 -31 88 -58 47 -27 94 -54 105 -61 45 -26 345 -173 420 -206 123
-52 323 -125 469 -168 171 -52 367 -101 374 -95 3 3 10 2 16 -3 9 -8 156 -38
266 -55 19 -3 46 -8 60 -11 29 -6 101 -16 145 -20 17 -2 30 -4 30 -5 0 -2 31
-6 105 -14 25 -3 66 -7 91 -11 47 -5 89 -9 274 -22 192 -14 546 -8 745 12 25
2 79 7 120 11 41 4 86 8 100 9 14 2 45 6 70 9 143 17 275 38 382 61 36 8 83
17 105 21 78 12 435 111 493 136 14 6 31 12 37 14 17 3 101 33 138 49 17 7 62
26 100 41 163 64 479 226 640 328 205 131 417 291 584 441 129 115 399 395
473 490 29 38 50 64 63 79 46 52 83 105 78 110 -4 3 -1 6 4 6 18 0 200 265
340 495 93 152 259 474 340 660 20 44 43 98 53 120 10 22 32 76 49 120 17 44
36 88 41 98 6 10 8 22 5 27 -4 6 -2 10 3 10 5 0 13 15 19 33 6 17 39 111 73
207 69 199 154 477 230 755 29 105 58 207 66 228 8 20 14 44 14 52 0 25 -55
76 -86 78 -16 1 -35 10 -42 20 -31 41 -72 47 -342 47 l-258 0 -22 -92 c-13
-51 -41 -156 -62 -233 -22 -77 -41 -147 -43 -155 -2 -8 -12 -42 -23 -75 -11
-33 -38 -118 -62 -190 -54 -168 -120 -349 -162 -443 -10 -24 -16 -47 -13 -52
4 -6 2 -10 -2 -10 -5 0 -24 -37 -43 -82 -92 -229 -258 -559 -381 -760 -32 -53
-59 -101 -59 -106 0 -6 -3 -12 -7 -14 -5 -1 -37 -47 -72 -101 -55 -83 -163
-235 -216 -302 -9 -11 -26 -33 -38 -48 -12 -16 -30 -39 -42 -51 -11 -12 -38
-45 -60 -71 -58 -71 -359 -373 -430 -431 -33 -27 -62 -51 -65 -54 -11 -12
-179 -139 -240 -181 -219 -154 -479 -291 -745 -394 -166 -64 -418 -140 -534
-160 -19 -3 -37 -8 -41 -10 -4 -3 -22 -7 -41 -9 -19 -3 -43 -7 -54 -9 -11 -3
-42 -8 -70 -11 -27 -4 -57 -9 -65 -11 -8 -2 -40 -7 -70 -10 -30 -3 -68 -7 -85
-10 -165 -23 -761 -24 -883 0 -9 1 -46 6 -82 10 -36 3 -76 8 -90 10 -14 3 -71
11 -127 20 -125 18 -310 57 -463 96 -63 17 -126 32 -139 35 -14 3 -28 7 -33
10 -4 3 -17 7 -28 9 -11 2 -93 29 -183 59 -311 104 -626 239 -862 369 -11 6
-24 11 -28 12 -4 0 -12 7 -17 15 -5 8 -10 11 -10 6 0 -5 -9 -1 -20 9 -11 10
-20 15 -20 11 0 -4 -10 2 -22 14 -12 11 -27 20 -34 20 -6 0 -17 7 -24 15 -7 9
-15 13 -17 11 -3 -2 -13 4 -24 15 -11 11 -25 17 -32 13 -7 -4 -9 -4 -5 1 9 9
-132 102 -147 97 -5 -2 -7 0 -3 3 4 4 -27 32 -70 63 -195 139 -393 319 -511
462 -30 36 -57 67 -60 70 -4 3 -35 41 -69 85 -35 44 -69 87 -77 97 -7 9 -44
60 -81 115 -37 54 -72 101 -77 104 -5 3 -7 9 -5 12 1 4 -4 14 -12 24 -8 10
-21 29 -28 43 -7 14 -18 34 -25 45 -7 11 -30 52 -52 90 -21 39 -43 73 -48 76
-5 3 -8 8 -7 10 2 5 -17 50 -30 69 -9 14 -49 101 -103 220 -83 186 -207 547
-242 706 -2 10 -15 69 -29 129 -14 61 -28 124 -31 140 -13 75 -37 224 -41 260
-3 22 -7 56 -10 75 -19 125 -28 298 -29 545 0 210 3 287 19 470 30 335 150
833 271 1120 7 17 22 53 33 81 12 28 36 82 54 120 18 38 32 71 33 74 0 3 3 10
7 15 4 6 29 53 56 105 46 89 164 291 184 315 4 5 35 49 68 97 33 48 66 95 74
105 8 10 42 53 77 96 34 43 83 102 110 131 27 29 46 56 44 60 -3 3 -3 5 0 3 2
-2 69 61 148 139 79 77 155 149 170 159 15 9 24 22 20 28 -3 5 -2 7 4 4 5 -3
20 4 34 16 72 67 301 237 318 237 6 0 14 6 18 13 7 10 25 21 118 71 11 6 22
13 25 16 23 24 381 175 463 195 15 4 27 10 27 14 0 4 8 7 18 7 9 1 78 17 152
37 74 20 149 39 165 41 17 3 55 10 85 16 30 6 71 13 90 16 19 3 45 7 56 9 12
2 48 6 80 10 33 4 70 9 84 11 161 25 729 24 960 -2 80 -9 185 -23 225 -30 17
-3 39 -7 50 -8 61 -9 390 -86 445 -105 14 -5 59 -19 100 -31 41 -12 84 -25 95
-30 11 -4 61 -22 110 -40 266 -95 546 -234 765 -380 472 -312 779 -707 869
-1118 42 -189 54 -346 37 -467 -12 -79 -48 -197 -73 -237 -13 -21 -23 -42 -23
-48 0 -23 -157 -166 -215 -196 -118 -62 -240 -92 -400 -102 -217 -12 -1090 -5
-1600 13 -208 7 -446 16 -530 20 -49 2 -153 7 -230 10 -346 15 -873 42 -980
50 -22 2 -52 4 -67 4 l-28 1 0 695 0 695 -37 -1 c-66 -3 -70 -1 -69 29 l1 27
-452 3 -453 2 -7 -27 c-9 -37 -10 -4001 -1 -4173 4 -74 10 -146 12 -160 3 -14
7 -47 11 -75 16 -135 71 -315 136 -450 41 -84 42 -85 103 -180 136 -210 362
-403 621 -529 137 -67 170 -80 300 -124 218 -73 311 -98 405 -108 14 -1 25 -3
25 -4 0 -6 54 -11 140 -13 105 -1 165 16 188 54 21 35 0 68 -63 96 -33 14 -60
30 -60 34 0 4 -17 13 -37 20 -41 12 -205 89 -213 98 -3 4 -39 32 -80 63 -41
31 -89 70 -106 87 -18 16 -36 27 -40 23 -5 -4 -6 -3 -2 2 4 5 -10 28 -31 51
-22 24 -56 69 -78 101 -21 33 -42 62 -46 65 -5 3 -8 8 -7 10 0 2 -12 33 -28
69 -88 193 -123 389 -123 675 1 111 10 327 15 332 4 5 49 4 111 -2 33 -4 80
-8 105 -10 25 -2 70 -7 100 -10 30 -3 78 -7 105 -10 28 -2 68 -7 90 -10 22 -3
63 -8 90 -11 135 -14 216 -23 260 -30 17 -2 48 -6 70 -9 22 -2 56 -7 75 -10
19 -3 51 -8 70 -10 19 -2 49 -6 65 -9 17 -3 44 -7 60 -10 17 -2 44 -7 60 -10
17 -2 46 -7 65 -10 19 -3 46 -8 60 -11 14 -3 39 -8 55 -10 17 -3 55 -10 85
-16 30 -6 66 -12 80 -15 14 -2 57 -11 95 -20 39 -8 79 -16 90 -19 51 -10 168
-38 255 -60 261 -67 540 -160 750 -250 133 -57 395 -200 455 -248 6 -4 43 -32
83 -61 69 -51 152 -122 246 -209 156 -144 297 -218 461 -241 22 -3 63 -10 90
-15 51 -10 302 -8 343 3 12 3 30 8 40 10 33 8 99 34 141 55 88 46 195 184 206
270 2 14 4 26 5 26 13 0 13 189 1 234 -6 18 -10 36 -9 40 2 9 -26 96 -51 160
-67 168 -225 369 -371 471 -19 14 -37 27 -40 31 -13 14 -78 48 -83 44 -4 -3
-5 -2 -2 2 8 10 -189 106 -290 141 -49 17 -137 42 -195 56 -108 26 -445 89
-535 100 -27 3 -61 8 -75 10 -30 5 -99 14 -155 21 -22 3 -53 7 -70 9 -16 3
-57 8 -90 11 -33 3 -71 8 -85 10 -14 2 -54 7 -90 11 -36 3 -76 7 -90 9 -14 2
-59 6 -100 10 -41 4 -86 8 -100 10 -14 1 -63 5 -110 9 -47 4 -101 9 -120 11
-63 7 -235 22 -350 30 -105 8 -196 14 -260 20 -30 2 -98 7 -150 10 -52 3 -120
7 -150 10 -30 2 -102 7 -160 10 -58 3 -132 8 -164 10 -63 4 -199 11 -596 31
-238 11 -264 12 -335 13 l-70 1 5 576 5 576 29 25 c28 24 32 24 135 18 58 -4
124 -8 146 -11 22 -2 60 -6 85 -8 25 -3 68 -7 95 -11 28 -3 77 -8 110 -10 33
-2 60 -5 60 -5 0 -2 49 -8 130 -14 44 -4 100 -9 125 -11 25 -2 79 -7 120 -10
41 -4 93 -8 115 -10 22 -2 76 -6 120 -10 44 -3 107 -7 140 -10 72 -6 237 -17
465 -30 458 -27 1240 -26 1515 0 167 16 263 30 330 46 22 5 54 11 70 14 56 8
84 15 203 54 251 82 464 209 621 371 55 57 151 183 151 198 0 7 4 12 9 12 5 0
13 10 17 23 4 12 10 24 14 27 21 15 120 262 134 335 2 11 9 38 14 60 24 92 36
215 36 370 0 175 -8 255 -40 372 -28 107 -86 279 -115 340 -10 24 -19 45 -19
49 0 22 -176 357 -191 362 -5 2 -9 8 -9 13 0 9 -49 88 -60 99 -4 3 -16 21 -28
41 -12 20 -34 52 -49 71 -16 19 -39 50 -53 68 -14 18 -33 42 -43 54 -133 154
-207 232 -219 229 -4 -2 -7 1 -5 6 1 5 -14 24 -34 42 -97 91 -129 120 -129
116 0 -2 -24 18 -52 44 -29 27 -56 49 -59 49 -3 0 -21 14 -39 30 -18 17 -37
30 -42 30 -4 0 -17 8 -27 18 -31 28 -41 34 -146 103 -133 87 -175 112 -175
105 0 -3 -9 3 -20 14 -12 12 -25 18 -29 15 -5 -2 -12 2 -15 11 -4 9 -13 14
-21 10 -8 -3 -15 -2 -15 2 0 8 -71 46 -79 42 -2 -1 -7 3 -10 8 -8 12 -291 152
-308 152 -7 0 -13 5 -13 10 0 6 -3 9 -7 8 -5 -1 -25 6 -47 15 -21 9 -40 17
-43 17 -2 0 -23 8 -46 19 -108 48 -452 159 -577 186 -8 2 -55 12 -105 24 -49
11 -103 23 -120 26 -126 24 -257 45 -304 50 -31 4 -67 8 -81 11 -14 2 -54 7
-90 10 -36 3 -83 8 -105 10 -48 6 -651 14 -656 9z"/>
</g>
</svg>
